<?xml version="1.0" encoding="UTF-8" standalone="no"?>
<svg
   version="1.1"
   viewBox="0 0 328.96609 261.11471"
   id="svg471"
   sodipodi:docname="icon.svg"
   inkscape:version="1.3.2 (091e20ef0f, 2023-11-25, custom)"
   width="328.96609"
   height="261.11472"
   xmlns:inkscape="http://www.inkscape.org/namespaces/inkscape"
   xmlns:sodipodi="http://sodipodi.sourceforge.net/DTD/sodipodi-0.dtd"
   xmlns="http://www.w3.org/2000/svg"
   xmlns:svg="http://www.w3.org/2000/svg">
  <sodipodi:namedview
     id="namedview471"
     pagecolor="#ffffff"
     bordercolor="#666666"
     borderopacity="1.0"
     inkscape:showpageshadow="2"
     inkscape:pageopacity="0.0"
     inkscape:pagecheckerboard="0"
     inkscape:deskcolor="#d1d1d1"
     inkscape:zoom="1"
     inkscape:cx="84"
     inkscape:cy="270"
     inkscape:window-width="1920"
     inkscape:window-height="1020"
     inkscape:window-x="0"
     inkscape:window-y="0"
     inkscape:window-maximized="1"
     inkscape:current-layer="svg471" />
  <defs
     id="defs471" />
  <path
     id="path644"
     style="display:inline;fill:#00222b;stroke-width:1.51627"
     d="M 5.9453125 0 C 2.6517551 -1.1842367e-15 1.1957129e-17 2.6517551 0 5.9453125 L 0 255.16992 C 0 258.46348 2.6517551 261.11523 5.9453125 261.11523 L 323.02148 261.11523 C 326.31504 261.11523 328.9668 258.46348 328.9668 255.16992 L 328.9668 5.9453125 C 328.9668 2.6517551 326.31504 0 323.02148 0 L 5.9453125 0 z " />
  <path
     id="path595"
     style="display:inline;fill:#68bcbc"
     d="M 129.8125 41.707031 C 124.11373 41.591992 118.44155 44.405177 114.72656 50.535156 C 114.57749 50.77821 114.31629 50.926194 114.03711 50.925781 C 82.44387 50.959111 50.830504 51.045547 19.197266 51.185547 C 15.747276 51.195547 12.365928 50.924372 9.0859375 49.734375 C 6.1370138 48.668462 3.0494968 47.706082 0 46.695312 L 0 50.695312 C 3.3958129 51.84529 6.7736049 52.995764 10.005859 54.154297 C 11.715855 54.774295 13.615865 55.083984 15.505859 55.083984 C 48.092429 54.990654 80.312773 54.975158 112.16602 55.035156 C 113.926 55.035156 115.61633 54.915781 117.23633 54.675781 C 117.64966 54.615781 117.95315 54.398722 118.14648 54.025391 C 123.54647 43.445422 136.94634 44.264171 141.98633 54.494141 C 142.15966 54.840806 142.43951 55.015625 142.82617 55.015625 C 195.96602 54.955625 251.91596 55.004066 310.67578 55.164062 C 313.50244 55.170762 315.91912 54.8219 317.92578 54.115234 C 321.62157 52.820604 325.2708 51.468265 328.9668 50.205078 L 328.9668 46.070312 C 325.58881 47.244109 322.30611 48.370967 318.70703 49.654297 C 316.36037 50.487628 314.19989 50.907397 312.22656 50.914062 C 261.16671 51.020729 205.74662 51.02578 145.9668 50.925781 C 145.60415 50.926029 145.26373 50.74632 145.05664 50.445312 C 141.23665 44.86533 135.51127 41.82207 129.8125 41.707031 z M 328.9668 56.375 C 327.48556 56.93766 325.94534 57.58449 324.48633 58.115234 C 321.87967 59.061898 318.92075 59.555703 315.60742 59.595703 C 310.01411 59.669033 304.44314 59.717474 298.89648 59.744141 C 246.20332 59.970806 194.60222 60.021198 144.0957 59.894531 C 143.53031 59.894799 143.02221 60.244652 142.81641 60.775391 C 141.97641 62.945383 141.18648 64.984693 139.64648 66.804688 C 135.93317 71.218008 131.01647 72.354837 124.89648 70.214844 C 120.9465 68.834848 118.33625 63.98577 117.15625 60.175781 C 117.04292 59.809116 116.79292 59.625 116.40625 59.625 C 87.033004 59.858333 57.660355 59.935469 28.287109 59.855469 C 22.627127 59.842139 17.336001 59.741354 12.416016 59.554688 C 9.7093567 59.454688 7.0539245 58.975233 4.4472656 58.115234 C 2.9202921 57.610095 1.5049901 57.05257 0 56.537109 L 0 61.044922 C 1.0372667 61.403921 1.8680667 61.718001 2.9375 62.083984 C 6.9874879 63.463981 10.597357 64.043906 15.027344 64.003906 C 48.420576 63.710575 80.706811 63.677632 111.88672 63.904297 C 113.19338 63.917627 114.1275 64.538962 114.6875 65.765625 C 118.09749 73.205603 125.33675 77.474683 133.63672 75.804688 C 139.35003 74.664692 143.51364 71.072039 146.12695 65.025391 C 146.38474 64.431729 146.96063 64.03894 147.60742 64.015625 C 148.82075 63.968955 149.99052 63.945313 151.11719 63.945312 C 222.35698 64.011982 278.27088 63.964682 318.85742 63.804688 C 321.08408 63.797988 323.31665 63.312367 325.55664 62.345703 C 326.69168 61.858148 327.83098 61.398561 328.9668 60.916016 L 328.9668 56.375 z M 1.8085938 162.88477 C 1.283967 162.95796 0.88716888 163.15463 0.6171875 163.47461 C 0.34387302 163.79459 0.41596648 163.94578 0.8359375 163.92578 L 2.3359375 163.8457 C 2.7492696 163.819 2.9725261 164.01245 3.0058594 164.42578 C 3.0658553 165.04574 2.8127213 165.45431 2.2460938 165.6543 C 1.899451 165.78095 1.7265625 166.02789 1.7265625 166.39453 L 1.7265625 166.92578 C 1.7265625 167.33242 1.9261995 167.49406 2.3261719 167.41406 C 2.7794739 167.32076 3.2496951 167.35876 3.7363281 167.52539 C 4.0829709 167.63872 4.2434616 167.8775 4.2167969 168.24414 C 4.1967969 168.50414 4.0208324 168.68206 3.6875 168.77539 C 3.3808545 168.86869 3.0773231 168.86869 2.7773438 168.77539 L 2.2167969 168.5957 C 1.770161 168.44905 1.6034713 168.6047 1.7167969 169.06445 C 1.7634598 169.25777 1.8623023 169.41516 2.015625 169.53516 C 2.4619785 169.88441 2.2322445 170.60057 1.6660156 170.625 C 1.4060336 170.6383 1.1559991 170.5643 0.91601562 170.4043 C 0.44432346 170.08136 0.30388302 169.45024 0.59570312 168.96484 C 0.74235968 168.72486 0.77726012 168.47173 0.69726562 168.20508 C 0.60207187 167.8481 0.33967895 167.70824 0 167.66992 L 0 194.67578 C 2.6060264 194.00024 4.7843781 194.47475 6.4960938 196.20508 C 11.046081 200.79506 7.5867003 207.84391 1.3867188 208.00391 C 0.87253424 208.01701 0.44591163 207.87159 0 207.76172 L 0 235.55469 C 0.36664051 235.4881 0.73301704 235.37213 1.015625 235.0957 L 63.486328 173.83398 C 54.140942 173.55402 44.929512 173.29155 35.857422 173.04492 C 34.205982 172.99992 32.564082 172.86249 30.933594 172.63281 C 27.672664 172.17351 24.455227 171.34411 21.279297 170.14648 C 19.691302 169.54769 18.113327 168.85745 16.546875 168.07422 C 14.646881 167.12422 12.897416 165.6457 11.107422 164.3457 C 10.444091 164.93904 9.7813271 165.23118 9.1210938 165.22266 C 8.4608603 165.21366 7.803149 164.90492 7.1464844 164.29492 C 6.8144509 163.9884 6.3264117 163.91713 5.9160156 164.11523 C 5.6826985 164.22523 5.4800901 164.25846 5.3085938 164.2168 C 5.1371032 164.1751 4.9967184 164.05857 4.8867188 163.86523 C 4.6334029 163.42526 4.2589243 163.14848 3.765625 163.03516 C 2.9856788 162.86183 2.3332205 162.81157 1.8085938 162.88477 z M 328.7168 165.05469 C 328.37014 165.06169 328.12322 165.22183 327.97656 165.53516 C 327.7499 165.99514 327.65727 166.50757 327.69727 167.07422 C 327.71727 167.40754 327.89324 167.59787 328.22656 167.64453 C 328.5025 167.67951 328.72496 167.51909 328.9668 167.42969 L 328.9668 165.14844 C 328.87531 165.13929 328.81162 165.05469 328.7168 165.05469 z M 315.62109 166.10742 C 314.80558 166.26985 313.95378 166.61236 313.06641 167.13477 C 310.63341 168.56789 309.15045 169.38401 308.61719 169.58398 C 306.8541 170.24723 305.07278 170.81591 303.27344 171.29102 C 299.67483 172.24127 296.00366 172.81479 292.26172 173.01172 C 290.39072 173.11022 288.50211 173.11535 286.5957 173.02539 L 285.01953 173.05664 L 263.91602 173.48438 C 285.54261 193.66431 306.80399 214.15204 327.69727 234.94531 C 328.04792 235.2951 328.50069 235.46544 328.9668 235.49219 L 328.9668 207.04492 C 325.55911 208.49131 320.38872 207.80628 319.23633 203.80469 C 317.71633 198.4947 320.43681 193.34414 326.7168 194.74414 C 327.61196 194.94088 328.28597 195.44637 328.9668 195.9043 L 328.9668 169.27148 C 328.8455 169.15836 328.70976 169.07159 328.62695 168.88477 C 328.44029 168.44478 328.18718 168.40058 327.86719 168.75391 L 326.6875 170.03516 C 326.46751 170.28181 326.19384 170.3981 325.86719 170.38477 C 324.36724 170.32477 322.90938 170.63448 321.49609 171.31445 C 321.16944 171.46778 320.86903 171.43174 320.5957 171.20508 L 320.13672 170.81445 C 319.11675 169.96115 319.26908 169.5619 320.5957 169.61523 L 321.60742 169.6543 C 322.02741 169.6743 322.32587 169.49212 322.50586 169.10547 C 322.61919 168.87881 322.70253 168.65244 322.75586 168.42578 C 323.02252 167.32582 322.65002 167.03471 321.63672 167.55469 C 320.90008 167.93467 320.3441 168.06216 319.9707 167.93555 C 319.59731 167.80894 319.40648 167.42825 319.39648 166.79492 C 318.93321 166.5033 318.45442 166.29182 317.95898 166.16016 C 317.21583 165.96267 316.4366 165.945 315.62109 166.10742 z M 316.94727 166.50781 C 317.06087 166.5076 317.16367 166.53544 317.25 166.58984 C 317.66525 166.85249 317.62415 167.66301 317.1582 168.40039 C 316.69205 169.13723 315.97786 169.52186 315.5625 169.25977 C 315.14725 168.99712 315.18835 168.1866 315.6543 167.44922 C 315.96976 166.95058 316.37295 166.70978 316.74609 166.625 C 316.79849 166.6115 316.84801 166.5133 316.89844 166.50977 C 316.91514 166.50877 316.93107 166.50781 316.94727 166.50781 z M 313.53516 168.24023 C 313.55066 168.23965 313.56518 168.24012 313.58008 168.24023 C 313.68337 168.24102 313.72893 168.31133 313.80469 168.3457 C 313.85999 168.3707 313.92804 168.38113 313.96875 168.42383 C 314.10189 168.56475 314.18042 168.77308 314.15625 169.10547 C 314.14295 169.20547 314.14928 169.3012 314.17578 169.39453 C 314.26908 169.85451 314.08388 170.04484 313.61719 169.96484 L 312.1875 169.72461 C 311.68086 169.63791 311.60062 169.40537 311.94727 169.02539 C 312.25392 168.68541 312.65937 168.44468 313.16602 168.30469 C 313.30255 168.26639 313.42653 168.24443 313.53516 168.24023 z M 315.76367 170.74219 C 315.78907 170.74218 315.8157 170.74621 315.8457 170.75391 C 317.03231 171.03389 317.97272 171.60799 318.66602 172.47461 C 318.926 172.80793 318.86941 172.87072 318.49609 172.66406 C 317.60947 172.17075 316.68961 171.83429 315.73633 171.6543 C 315.5669 171.6191 315.45614 171.45555 315.48633 171.28516 L 315.55664 170.94531 C 315.58164 170.82032 315.64204 170.75289 315.73828 170.74414 C 315.74628 170.74341 315.75517 170.74219 315.76367 170.74219 z M 327.31836 171.49414 C 327.34076 171.49404 327.36422 171.49372 327.38672 171.49414 C 327.77475 171.49914 328.05253 171.87063 327.94727 172.24414 C 327.88057 172.49079 327.75926 172.70168 327.58594 172.875 C 327.36595 173.08166 327.13647 173.09095 326.89648 172.9043 L 326.22656 172.35547 C 325.86658 172.06215 325.90573 171.83577 326.3457 171.67578 C 326.65819 171.55704 326.98244 171.4957 327.31836 171.49414 z M 312.29102 171.79297 C 312.49925 171.79197 312.65668 171.98109 312.61719 172.18555 C 312.49719 172.91884 312.06303 173.40144 311.31641 173.63477 C 310.58978 173.86142 310.47659 173.68857 310.97656 173.11523 L 312.03711 171.91406 C 312.09441 171.84456 312.17772 171.8015 312.26758 171.79492 C 312.27058 171.79466 312.26944 171.80078 312.27344 171.80078 C 312.28044 171.80034 312.28432 171.79297 312.29102 171.79297 z " />
  <path
     id="path594"
     style="display:none;fill:#359cab"
     d="M 0 9.2910156 L 0 21.429688 L 94.277344 21.375 C 94.744008 21.375 95.140131 21.538569 95.466797 21.865234 C 97.376791 23.795229 98.115791 25.835002 101.17578 26.375 C 106.8691 27.374997 111.30633 25.943974 114.48633 22.083984 C 114.85335 21.634974 115.40408 21.374667 115.98633 21.375 L 273.14648 21.375 C 273.52148 20.701669 273.9534 20.110018 274.44141 19.599609 C 275.90549 18.068435 277.87777 17.270069 280.35742 17.205078 C 283.54364 17.118428 286.0238 18.467633 287.79688 21.253906 L 328.9668 21.158203 L 328.9668 9.3886719 L 113.07617 9.2949219 C 113.18116 12.485725 112.28266 15.638594 110.69531 17.900391 C 110.1659 18.654848 109.5595 19.309498 108.88867 19.833984 C 107.54834 20.881933 105.95011 21.409224 104.18555 21.160156 C 104.18355 21.159881 104.18169 21.158503 104.17969 21.158203 C 103.29888 21.03305 102.37533 20.716441 101.42383 20.173828 C 100.47022 19.630016 99.487575 18.860231 98.486328 17.833984 C 96.273304 15.567636 95.47579 12.795166 96.095703 9.515625 L 0 9.2910156 z " />
  <path
     id="path563"
     style="display:inline;fill:#c2efe6"
     d="M 326.04102 159.35938 C 325.94529 159.36137 325.84694 159.38916 325.75586 159.44531 C 325.30924 159.72528 324.98709 160.13584 324.78711 160.67578 C 324.66712 160.99575 324.75981 161.23145 325.06641 161.38477 C 325.35307 161.53143 325.59689 161.72794 325.79688 161.97461 C 325.99021 162.22794 325.99308 162.48414 325.80664 162.74414 C 325.64664 162.96414 325.45943 162.99904 325.24609 162.8457 C 324.55943 162.35904 323.91331 161.82104 323.30664 161.23438 C 322.79669 160.7411 322.305 160.51095 321.83008 160.54297 C 321.35515 160.57497 320.89699 160.86917 320.45703 161.42578 C 319.9837 162.01911 319.46005 162.55206 318.88672 163.02539 C 318.38344 163.43868 318.16899 163.75786 318.24219 163.98438 C 318.31539 164.2109 318.67624 164.34477 319.32617 164.38477 C 319.5195 164.39807 319.69204 164.50194 319.84375 164.69531 C 319.99546 164.88868 320.12633 165.17159 320.23633 165.54492 C 320.41299 166.15159 320.43097 166.55924 320.29102 166.76758 C 320.15105 166.97591 319.85315 166.98496 319.39648 166.79492 C 319.41648 168.06159 320.16339 168.31469 321.63672 167.55469 C 322.65005 167.03469 323.02253 167.32578 322.75586 168.42578 C 322.70256 168.65245 322.61919 168.8788 322.50586 169.10547 C 322.32586 169.49213 322.02742 169.6743 321.60742 169.6543 L 320.5957 169.61523 C 319.26904 169.56193 319.11672 169.96112 320.13672 170.81445 L 320.5957 171.20508 C 320.86904 171.43174 321.16943 171.46779 321.49609 171.31445 C 322.90942 170.63445 324.36719 170.32477 325.86719 170.38477 C 326.19385 170.39807 326.4675 170.28182 326.6875 170.03516 L 327.86719 168.75391 C 328.18719 168.40057 328.44029 168.44477 328.62695 168.88477 C 328.71549 169.08455 328.83425 169.2263 328.9668 169.3418 L 328.9668 167.56055 C 328.7342 167.64074 328.49034 167.67797 328.22656 167.64453 C 327.89323 167.59783 327.71727 167.40755 327.69727 167.07422 C 327.65727 166.50755 327.74987 165.99516 327.97656 165.53516 C 328.12323 165.22182 328.37013 165.06135 328.7168 165.05469 C 328.80283 165.05469 328.88352 165.06865 328.9668 165.07617 L 328.9668 160.53125 C 328.89674 160.57981 328.83453 160.63732 328.75586 160.67578 C 328.31591 160.88909 328.0391 161.23489 327.92578 161.71484 C 327.88578 161.88149 327.81679 162.02454 327.7168 162.14453 C 327.58346 162.3112 327.3726 162.36779 327.08594 162.31445 C 326.88158 162.27345 326.73013 162.09716 326.7168 161.88477 L 326.60742 159.88477 C 326.59942 159.67427 326.4778 159.50913 326.3125 159.42383 C 326.22985 159.38118 326.13674 159.35738 326.04102 159.35938 z " />
  <path
     id="path549"
     style="display:inline;fill:#c2efe6"
     d="M 316.94727 166.50781 C 316.93107 166.50784 316.91504 166.50855 316.89844 166.50977 C 316.48684 166.53857 315.99585 166.90935 315.6543 167.44922 C 315.18833 168.18664 315.14723 168.9971 315.5625 169.25977 C 315.97788 169.52187 316.69203 169.13726 317.1582 168.40039 C 317.62417 167.66297 317.66527 166.85251 317.25 166.58984 C 317.1637 166.53534 317.06087 166.50761 316.94727 166.50781 z " />
  <path
     id="path547"
     style="display:inline;fill:#e8f8f9"
     d="M 313.53516 168.24023 C 313.42652 168.24423 313.30255 168.26639 313.16602 168.30469 C 312.65935 168.44469 312.25393 168.68539 311.94727 169.02539 C 311.6006 169.40539 311.68083 169.63794 312.1875 169.72461 L 313.61719 169.96484 C 314.08385 170.04484 314.26911 169.85453 314.17578 169.39453 C 314.14908 169.30123 314.14285 169.20547 314.15625 169.10547 C 314.19795 168.53255 314.00635 168.24349 313.58008 168.24023 C 313.56518 168.24012 313.55066 168.23965 313.53516 168.24023 z " />
  <path
     id="path546"
     style="display:inline;fill:#c2efe6"
     d="M 315.76367 170.74219 C 315.75567 170.74219 315.74628 170.74314 315.73828 170.74414 C 315.64208 170.75314 315.58164 170.82034 315.55664 170.94531 L 315.48633 171.28516 C 315.45613 171.45556 315.56693 171.61909 315.73633 171.6543 C 316.68966 171.8343 317.60943 172.17073 318.49609 172.66406 C 318.86943 172.87073 318.92602 172.80794 318.66602 172.47461 C 317.97268 171.60794 317.03237 171.03391 315.8457 170.75391 C 315.8157 170.74691 315.78897 170.74219 315.76367 170.74219 z " />
  <path
     id="path545"
     style="display:inline;fill:#c2efe6"
     d="M 262.14648 171.43555 L 263.91602 173.48438 L 285.01953 173.05664 C 281.35371 173.10924 277.74184 173.01814 274.18164 172.78711 C 274.17564 172.78673 274.16986 172.78749 274.16406 172.78711 C 274.15806 172.78672 274.15248 172.78516 274.14648 172.78516 C 270.07792 172.52005 266.07719 172.07125 262.14648 171.43555 z " />
  <path
     id="path544"
     style="display:inline;fill:#c2efe6"
     d="M 327.31836 171.49414 C 326.98242 171.49614 326.6582 171.55704 326.3457 171.67578 C 325.9057 171.83578 325.86656 172.06214 326.22656 172.35547 L 326.89648 172.9043 C 327.13648 173.09096 327.36594 173.08167 327.58594 172.875 C 327.75927 172.70167 327.8806 172.49081 327.94727 172.24414 C 328.05253 171.87063 327.77475 171.49896 327.38672 171.49414 C 327.36422 171.49372 327.34076 171.49404 327.31836 171.49414 z " />
  <path
     id="path543"
     style="display:inline;fill:#e8f8f9"
     d="M 312.26758 171.79492 C 312.17768 171.80192 312.09444 171.84452 312.03711 171.91406 L 310.97656 173.11523 C 310.47656 173.68857 310.58974 173.86143 311.31641 173.63477 C 312.06307 173.40143 312.49719 172.91888 312.61719 172.18555 C 312.65779 171.97197 312.48434 171.77818 312.26758 171.79492 z " />
  <path
     id="path529"
     style="display:inline;fill:#c2efe6"
     d="M 0 157.82422 L 0 167.61719 C 0.3614019 167.64479 0.59857006 167.83497 0.69726562 168.20508 C 0.77726535 168.47174 0.74236938 168.72484 0.59570312 168.96484 C 0.30386376 169.45027 0.44429233 170.08134 0.91601562 170.4043 C 1.1560149 170.5643 1.4060164 170.63833 1.6660156 170.625 C 2.2322819 170.6006 2.4620079 169.88444 2.015625 169.53516 C 1.8622922 169.41516 1.7634633 169.25779 1.7167969 169.06445 C 1.6034639 168.60445 1.7701313 168.44904 2.2167969 168.5957 L 2.7773438 168.77539 C 3.0773429 168.86869 3.3808342 168.86869 3.6875 168.77539 C 4.0208324 168.68209 4.1967969 168.50414 4.2167969 168.24414 C 4.2434638 167.87747 4.0829938 167.63872 3.7363281 167.52539 C 3.2496629 167.35872 2.7795038 167.32073 2.3261719 167.41406 C 1.9261731 167.49406 1.7265625 167.33246 1.7265625 166.92578 L 1.7265625 166.39453 C 1.7265625 166.02787 1.8994281 165.78096 2.2460938 165.6543 C 2.8127587 165.4543 3.0658592 165.04578 3.0058594 164.42578 C 2.9725264 164.01245 2.7492696 163.81904 2.3359375 163.8457 L 0.8359375 163.92578 C 0.41593876 163.94578 0.34385498 163.79461 0.6171875 163.47461 C 1.1571859 162.83461 2.2056297 162.68849 3.765625 163.03516 C 4.2589568 163.14849 4.6333862 163.42524 4.8867188 163.86523 C 5.1067181 164.2519 5.4493504 164.33523 5.9160156 164.11523 C 6.3264388 163.91711 6.814429 163.98838 7.1464844 164.29492 C 8.4598138 165.51492 9.7807591 165.53235 11.107422 164.3457 C 9.3542129 162.9858 7.5330171 161.58753 5.6464844 160.1543 C 5.1331875 159.75766 4.5146783 159.38861 3.7929688 159.04883 C 3.0712591 158.70905 2.2463403 158.39855 1.3164062 158.11523 C 0.87648101 157.97988 0.43807075 157.89119 0 157.82422 z " />
  <path
     id="path318"
     style="display:inline;fill:#ffffff"
     d="M 0 116.14062 L 0 157.84961 C 0.438286 157.91658 0.87622245 157.97979 1.3164062 158.11523 C 3.1764007 158.6819 4.6198208 159.36097 5.6464844 160.1543 C 7.5331454 161.58763 9.3540936 162.98571 11.107422 164.3457 C 12.897416 165.6457 14.646881 167.12422 16.546875 168.07422 C 22.813523 171.20755 29.250774 172.86492 35.857422 173.04492 C 44.930728 173.29159 54.139689 173.55398 63.486328 173.83398 L 77.595703 160.49414 C 78.155463 159.9612 77.942221 159.02358 77.207031 158.78516 C 76.587033 158.59182 75.950206 158.49414 75.296875 158.49414 C 66.670235 158.46084 57.696925 158.41234 48.376953 158.3457 C 47.576956 158.3387 47.103698 157.94096 46.957031 157.1543 C 44.357039 143.24433 34.856052 134.11547 20.996094 132.35547 C 14.606113 131.54547 6.1556895 133.84548 1.5957031 138.85547 C 1.409037 139.06214 1.1826815 139.13112 0.91601562 139.06445 C 0.68095998 139.00515 0.53228268 138.77358 0.57617188 138.53516 C 2.0721935 130.79091 1.7734659 123.23276 0 116.14062 z " />
  <path
     id="path311"
     style="display:inline;fill:#ffffff"
     d="M 328.9668 112.30859 C 326.73851 118.54599 325.68146 125.14799 326.26562 131.73438 C 326.47229 134.06104 326.74284 136.39128 327.07617 138.72461 C 327.1895 139.48461 326.95385 139.61523 326.36719 139.11523 C 318.51721 132.40526 308.09716 130.44469 298.36719 134.05469 C 288.78722 137.59467 282.04679 147.59573 280.7168 157.5957 C 280.6617 158.06394 280.26829 158.41894 279.79688 158.42578 C 270.75024 158.55911 261.62575 158.6188 252.42578 158.60547 C 251.80578 158.60547 251.29648 158.73414 250.89648 158.99414 C 250.68987 159.13778 250.65649 159.42794 250.82617 159.60547 L 262.14648 171.43555 C 270.0198 172.70888 278.16906 173.23872 286.5957 173.02539 C 294.22235 173.38539 301.56387 172.23731 308.61719 169.58398 C 309.15052 169.38398 310.63308 168.56809 313.06641 167.13477 C 315.43306 165.74144 317.54316 165.62826 319.39648 166.79492 C 320.30982 167.17492 320.58966 166.75822 320.23633 165.54492 C 320.01633 164.79826 319.71284 164.41143 319.32617 164.38477 C 318.02617 164.30477 317.88005 163.85206 318.88672 163.02539 C 319.46005 162.55206 319.9837 162.01911 320.45703 161.42578 C 321.33703 160.31245 322.28664 160.24772 323.30664 161.23438 C 323.91331 161.82104 324.55943 162.35904 325.24609 162.8457 C 325.45943 162.99904 325.64664 162.96414 325.80664 162.74414 C 325.99331 162.48414 325.99044 162.22794 325.79688 161.97461 C 325.59689 161.72794 325.35307 161.53143 325.06641 161.38477 C 324.75974 161.23143 324.66711 160.99578 324.78711 160.67578 C 324.98711 160.13578 325.30919 159.72531 325.75586 159.44531 C 326.12025 159.22078 326.59105 159.46371 326.60742 159.88477 L 326.7168 161.88477 C 326.7301 162.09716 326.88158 162.27345 327.08594 162.31445 C 327.3726 162.36775 327.58346 162.31145 327.7168 162.14453 C 327.8168 162.02453 327.88578 161.88151 327.92578 161.71484 C 328.03911 161.23484 328.31586 160.88911 328.75586 160.67578 C 328.83453 160.63732 328.89674 160.57981 328.9668 160.53125 L 328.9668 112.30859 z " />
  <path
     id="path310"
     style="display:inline;fill:#ffffff"
     d="M 0 248.98828 L 0 255.16992 C 0 258.46348 2.6517551 261.11523 5.9453125 261.11523 L 44.6875 261.11523 C 44.741108 261.00381 44.681548 260.86016 44.486328 260.67578 C 43.819664 260.06245 43.009971 259.66128 42.056641 259.47461 C 37.809986 258.66128 33.539413 257.77135 29.246094 256.80469 C 24.346109 255.70469 19.575689 253.98523 14.845703 252.36523 C 10.041828 250.71699 5.0878679 249.61113 0 248.98828 z " />
  <path
     id="path309"
     style="display:inline;fill:#ffffff"
     d="M 328.9668 248.80273 C 325.01984 249.24493 321.23692 249.98627 317.65625 251.0957 C 310.78627 253.2157 304.09677 255.69555 297.2168 257.18555 C 293.2968 258.03221 289.38011 258.94073 285.4668 259.91406 C 284.7268 260.09406 284.60742 260.47469 285.10742 261.05469 C 285.12713 261.07776 285.16754 261.09302 285.18945 261.11523 L 323.02148 261.11523 C 326.31504 261.11523 328.9668 258.46348 328.9668 255.16992 L 328.9668 248.80273 z " />
  <path
     id="path305"
     style="display:inline;fill:#ffffff"
     d="M 104.51172 3.7890625 C 101.68172 3.8257295 98.875695 5.7356364 96.095703 9.515625 C 95.475705 12.795615 96.273001 15.567325 98.486328 17.833984 C 106.4963 26.04396 113.35617 17.804895 113.07617 9.2949219 C 110.19618 5.5882663 107.34171 3.7523959 104.51172 3.7890625 z " />
  <path
     id="path296"
     style="display:inline;fill:#ffffff"
     d="M 280.35742 17.205078 C 277.05077 17.291748 274.64648 18.681675 273.14648 21.375 C 272.53982 23.908325 272.49564 25.79516 273.01562 27.035156 C 274.66229 30.961811 277.53053 32.530805 281.61719 31.744141 C 286.99717 30.71081 289.05687 27.213888 287.79688 21.253906 C 286.02356 18.467248 283.54408 17.118412 280.35742 17.205078 z " />
  <path
     id="path295"
     style="display:inline;fill:#ffffff"
     d="M 42.65625 32.691406 C 42.56106 32.691279 42.466178 32.694519 42.371094 32.699219 C 40.293574 32.803281 38.522671 34.055126 37.839844 35.902344 C 36.876396 38.507542 38.349744 41.453364 41.130859 42.482422 C 43.912605 43.511087 46.948725 42.232629 47.912109 39.626953 C 48.875558 37.021755 47.402209 34.075933 44.621094 33.046875 C 43.989354 32.813174 43.322583 32.692298 42.65625 32.691406 z " />
  <path
     id="path294"
     style="display:inline;fill:#ffffff"
     d="M 223.37695 32.753906 C 222.71801 32.745306 222.06062 32.858034 221.4375 33.085938 C 218.69313 34.08969 217.25627 37.05699 218.22852 39.712891 C 219.20024 42.368989 222.21303 43.707906 224.95703 42.703125 C 227.70065 41.698605 229.13652 38.731535 228.16406 36.076172 C 227.47519 34.194137 225.71509 32.9004 223.66016 32.765625 C 223.56606 32.759425 223.47109 32.755135 223.37695 32.753906 z " />
  <path
     id="path290"
     style="display:inline;fill:#ffffff"
     d="M 201.17578 75.744141 C 200.38912 75.744141 199.9868 76.139117 199.9668 76.925781 L 199.86719 80.554688 C 199.83389 81.748017 199.22687 82.414689 198.04688 82.554688 L 191.78711 83.294922 C 190.85378 83.408255 190.35068 83.931904 190.27734 84.865234 C 190.27034 84.971901 190.28034 85.08198 190.30664 85.195312 C 190.61997 86.281976 191.34323 86.788177 192.47656 86.714844 C 194.92322 86.561511 197.17944 86.758025 199.24609 87.304688 C 199.62609 87.404687 199.81951 87.651589 199.82617 88.044922 L 199.88672 92.414062 C 199.90002 93.340727 200.37022 93.781042 201.29688 93.734375 L 204.80664 93.564453 C 205.77331 93.517783 206.25897 93.011586 206.26562 92.044922 L 206.31641 88.074219 C 206.32741 87.413258 206.85494 86.877118 207.51562 86.855469 L 215.55664 86.583984 C 215.91075 86.571294 216.24127 86.399221 216.45703 86.115234 C 216.83703 85.615236 216.95641 85.165624 216.81641 84.765625 C 216.44307 83.692295 215.68687 83.141901 214.54688 83.115234 C 212.82689 83.088564 210.9257 82.934296 208.8457 82.654297 C 205.70572 82.234298 206.29648 79.254133 206.14648 76.994141 C 206.08648 76.174142 205.64617 75.760573 204.82617 75.753906 L 201.17578 75.744141 z " />
  <path
     id="path289"
     style="display:inline;fill:#ffffff"
     d="M 72.339844 84.724609 C 72.191652 84.717009 72.040038 84.726806 71.886719 84.753906 C 71.020055 84.900573 70.454166 85.471513 70.1875 86.464844 C 69.367503 89.474835 69.717106 92.594852 68.537109 95.464844 C 67.063781 99.058166 64.504077 101.64771 60.857422 103.23438 C 57.497432 104.69436 52.457415 103.714 50.107422 106.83398 C 49.854089 107.16732 49.857154 107.49755 50.117188 107.82422 C 50.863853 108.77088 51.843311 109.26779 53.056641 109.31445 C 58.456624 109.53445 63.69587 109.94525 67.005859 114.61523 C 69.825852 118.61523 69.196958 123.5158 70.626953 127.92578 C 70.75362 128.31245 71.003621 128.5923 71.376953 128.76562 C 72.21695 129.14562 72.98245 129.04174 73.675781 128.45508 C 73.895781 128.26841 74.020208 128.03391 74.046875 127.75391 C 74.226875 125.86724 74.363698 124.01221 74.457031 122.18555 C 74.827031 114.86556 79.027366 109.51391 86.777344 109.50391 C 88.827338 109.50391 93.14594 109.83492 93.835938 107.29492 C 94.036717 106.54431 93.638729 105.76523 92.916016 105.49414 C 91.109354 104.81414 89.22252 104.43547 87.255859 104.35547 C 79.865882 104.07547 74.876249 99.365134 74.40625 91.785156 C 74.299584 90.085162 74.246094 88.401036 74.246094 86.734375 C 74.240294 85.639231 73.377184 84.777667 72.339844 84.724609 z " />
  <path
     id="path285"
     style="display:inline;fill:#ffffff"
     d="M 252.83008 84.90625 C 252.7044 84.90235 252.57664 84.914949 252.45117 84.943359 C 251.95016 85.057331 251.54451 85.420209 251.37695 85.904297 C 250.54695 88.284289 251.08664 90.625397 250.55664 93.025391 C 249.12998 99.445371 244.98383 103.20469 238.11719 104.30469 C 236.33719 104.59135 234.60578 104.8774 232.92578 105.16406 C 232.13598 105.29385 231.52325 105.92719 231.41602 106.72461 C 231.22935 108.09127 231.7468 108.86492 232.9668 109.04492 C 236.72678 109.59492 240.57665 108.97523 244.05664 110.86523 C 248.97663 113.5319 251.28013 118.72223 250.9668 126.43555 C 250.947 127.02284 251.17084 127.5941 251.58594 128.01562 C 252.36594 128.78896 253.10664 129.03081 253.80664 128.74414 C 254.68664 128.37747 255.19284 127.72206 255.32617 126.77539 C 255.79617 123.3154 255.16625 119.72514 256.65625 116.53516 C 260.00624 109.37517 267.03666 109.96547 273.55664 109.10547 C 274.90995 108.92381 275.50768 107.30139 274.5957 106.28516 C 273.6857 105.28516 272.44695 104.86414 271.12695 104.74414 C 263.11698 103.97414 256.86672 101.78521 255.38672 92.865234 C 255.01672 90.675242 255.48572 86.995698 253.8457 85.345703 C 253.57131 85.072651 253.20712 84.918089 252.83008 84.90625 z " />
  <path
     id="path279"
     style="display:inline;fill:#ffffff"
     d="M 13.515625 88.015625 C 10.732848 88.016143 8.4770801 90.27191 8.4765625 93.054688 C 8.4760015 95.838228 10.732085 98.095185 13.515625 98.095703 C 16.299928 98.096264 18.557202 95.838991 18.556641 93.054688 C 18.556123 90.271148 16.299165 88.015064 13.515625 88.015625 z " />
  <path
     id="path234"
     style="display:inline;fill:#ffffff"
     d="M 305.39648 87.884766 C 302.49166 87.884895 300.13685 90.239702 300.13672 93.144531 C 300.13685 96.04936 302.49166 98.404167 305.39648 98.404297 C 308.30132 98.404167 310.65612 96.04936 310.65625 93.144531 C 310.65612 90.239702 308.30132 87.884895 305.39648 87.884766 z " />
  <path
     id="path49"
     style="display:inline;fill:#68bcbc"
     d="M 276.17578 208.77539 C 276.19578 210.08539 276.13208 211.39558 275.98242 212.70703 C 275.83281 214.01848 275.59734 215.3312 275.27734 216.64453 C 275.26404 216.69783 275.23727 216.74516 275.19727 216.78516 C 275.13727 216.85186 275.05703 216.86115 274.95703 216.81445 C 274.89703 216.78775 274.86412 216.80543 274.85742 216.86523 C 274.73742 217.57523 274.58095 218.23558 274.38672 218.84766 C 274.19249 219.45973 273.95983 220.02295 273.69141 220.53711 C 273.42299 221.05127 273.11796 221.51735 272.77539 221.93359 C 272.43283 222.34984 272.05338 222.71682 271.63672 223.03516 L 289.14648 235.10547 L 293.7168 225.76562 L 276.17578 208.77539 z " />
  <path
     id="path48"
     style="display:inline;fill:#359cab"
     d="M 293.7168 225.76562 L 289.14648 235.10547 C 290.57981 236.56547 292.57363 237.76818 295.12695 238.71484 C 299.26694 240.24151 303.44913 240.89888 307.67578 240.68555 C 308.21104 240.65895 308.45432 240.00454 308.06641 239.63477 L 293.7168 225.76562 z " />
  <path
     id="path47"
     style="display:inline;fill:#ffffff"
     d="M 163.26367 100.46875 C 162.49289 100.54825 161.68164 100.88922 160.80664 101.57422 C 156.25666 105.15421 150.46584 111.89486 145.50586 116.71484 C 125.03925 136.58145 104.73254 156.53738 84.585938 176.58398 C 70.555981 190.53395 55.907069 204.28512 42.037109 217.95508 C 35.30713 224.58505 28.456854 232.05549 21.546875 239.10547 C 21.184305 239.47348 21.357059 240.09605 21.857422 240.22461 C 23.017419 240.51794 24.232531 240.70206 25.505859 240.77539 C 26.49919 240.82869 27.555784 240.54888 28.675781 239.93555 C 31.209108 238.55555 33.666882 237.10398 36.046875 235.58398 C 36.281875 235.22065 36.535442 234.88308 36.806641 234.57031 C 37.077838 234.25754 37.366397 233.96934 37.673828 233.70703 C 37.98126 233.44473 38.306692 233.20803 38.650391 232.99609 C 38.994088 232.78416 39.35633 232.59721 39.736328 232.43555 C 39.849661 232.38885 39.927428 232.32391 39.970703 232.24219 C 40.013983 232.16049 40.022764 232.06198 39.996094 231.94531 C 39.976094 231.84531 39.982295 231.75073 40.015625 231.66406 C 40.068955 231.51073 40.172839 231.4088 40.326172 231.35547 C 40.566171 231.26877 40.738535 231.15274 40.84375 231.00586 C 40.948965 230.85898 40.987031 230.68128 40.957031 230.47461 C 40.937091 230.32153 40.880131 230.18646 40.796875 230.07422 C 40.713615 229.96197 40.603653 229.87251 40.480469 229.8125 C 40.357284 229.7525 40.219786 229.72101 40.080078 229.72461 C 39.94037 229.72861 39.798846 229.76701 39.666016 229.8457 C 37.792687 230.9257 35.950046 232.06873 34.136719 233.27539 C 33.776719 233.51539 33.389895 233.69755 32.976562 233.82422 C 32.796564 233.88092 32.641543 233.96418 32.511719 234.07422 C 32.381895 234.18426 32.277265 234.32105 32.197266 234.48438 C 32.110596 234.66437 31.997383 234.78641 31.857422 234.85156 C 31.717461 234.91676 31.550755 234.925 31.357422 234.875 L 30.947266 234.77539 C 30.747828 234.72449 30.59082 234.59533 30.498047 234.42969 C 30.405277 234.26405 30.37674 234.0619 30.4375 233.86523 C 30.564166 233.45024 30.722593 233.05793 30.912109 232.6875 C 31.101627 232.31707 31.321807 231.96843 31.574219 231.64258 C 31.82663 231.31673 32.110432 231.01369 32.425781 230.73242 C 32.741132 230.45116 33.088464 230.19174 33.466797 229.95508 C 33.583463 229.88508 33.664102 229.79892 33.708984 229.69531 C 33.753864 229.59171 33.762998 229.47065 33.736328 229.33398 C 33.722998 229.24068 33.726064 229.15112 33.746094 229.06445 C 33.792764 228.90779 33.866895 228.77376 33.966797 228.66211 C 34.066697 228.55046 34.19237 228.4612 34.345703 228.39453 L 38.216797 226.72461 C 38.376797 226.65791 38.486875 226.54167 38.546875 226.375 C 38.580205 226.275 38.642995 226.20406 38.736328 226.16406 C 38.816328 226.12406 38.899662 226.09738 38.986328 226.08398 C 39.772992 225.96065 40.552339 225.88309 41.324219 225.85156 C 42.096099 225.82006 42.860523 225.83453 43.617188 225.89453 C 43.79052 225.90783 43.951954 225.88753 44.101562 225.83203 C 44.251172 225.77703 44.388959 225.68779 44.515625 225.56445 C 44.875624 225.21445 45.160918 224.87934 45.486328 224.5918 C 45.649033 224.44803 45.822503 224.31712 46.019531 224.20117 C 46.21656 224.08522 46.437266 223.9843 46.697266 223.9043 C 48.27726 223.4243 49.860603 222.96539 51.447266 222.52539 C 51.693931 222.45209 53.164097 221.88112 55.857422 220.81445 C 56.60149 220.51814 57.365084 220.30229 58.146484 220.16211 C 58.165964 220.15811 58.185578 220.15634 58.205078 220.15234 C 58.789378 220.05055 59.383075 219.98936 59.988281 219.97461 C 60.193385 219.96961 60.399922 219.96961 60.607422 219.97461 C 72.047387 212.95463 83.333497 205.65419 94.466797 198.07422 C 94.833463 197.82755 95.223386 197.72872 95.636719 197.77539 C 96.000489 197.82569 96.187748 198.23786 95.986328 198.54492 C 91.439676 205.28491 86.320269 212.31478 80.626953 219.63477 C 74.96697 226.91474 69.825843 234.39456 64.255859 241.64453 C 62.1092 244.43119 60.192522 247.27074 58.505859 250.16406 C 57.632529 251.65739 57.932921 251.95469 59.40625 251.05469 C 75.746201 241.06805 92.71336 229.7583 110.30664 217.125 C 113.51997 214.81834 116.54053 212.79468 119.36719 211.05469 C 119.74052 210.83469 120.14594 210.75445 120.58594 210.81445 C 120.96915 210.87455 121.17974 211.29075 120.99609 211.625 C 119.9261 213.605 118.89672 215.70547 117.63672 217.60547 C 111.87006 226.33211 106.23631 235.11201 100.73633 243.94531 C 99.842996 245.38531 98.822445 246.82873 97.675781 248.27539 C 96.835784 249.33539 96.999352 249.5257 98.166016 248.8457 C 102.53267 246.27905 106.62727 243.60111 110.44727 240.81445 C 121.38056 232.83448 131.71086 225.16156 141.4375 217.79492 C 141.8412 217.49105 142.41056 217.54799 142.74609 217.92578 C 144.21276 219.57244 145.49261 221.19183 146.58594 222.78516 C 151.94592 230.59846 156.79364 237.27756 161.12695 242.82422 C 162.10695 244.08422 163.25927 245.26214 164.58594 246.35547 C 165.09493 246.7824 165.87055 246.41827 165.86719 245.75391 L 165.8457 168.75391 C 165.8457 168.36724 166.03912 168.19747 166.42578 168.24414 C 166.80578 168.29744 167.12362 168.46105 167.37695 168.73438 C 177.05692 179.08101 186.92636 189.22409 196.98633 199.16406 C 197.76633 199.93739 198.06362 199.78508 197.87695 198.70508 L 194.10742 176.50391 C 193.80742 174.74391 194.35586 174.41873 195.75586 175.52539 C 198.00252 177.29872 200.38935 179.4274 202.91602 181.91406 C 214.87597 193.65403 226.90589 205.02542 239.00586 216.02539 C 239.84586 216.79206 240.08036 216.63778 239.70703 215.56445 C 237.4337 208.97781 234.49958 201.68242 230.90625 193.67578 C 230.17958 192.05578 230.52417 191.78214 231.9375 192.85547 L 271.63672 223.03516 C 273.30338 221.76183 274.37742 219.70523 274.85742 216.86523 C 274.86442 216.80523 274.89703 216.78785 274.95703 216.81445 C 275.05703 216.86115 275.13727 216.85186 275.19727 216.78516 C 275.23727 216.74516 275.26394 216.69786 275.27734 216.64453 C 275.91734 214.01787 276.21578 211.39539 276.17578 208.77539 C 261.2225 194.71543 246.51039 180.43861 232.03711 165.94531 C 216.44715 150.32536 200.54581 134.99394 184.75586 119.58398 C 179.75587 114.704 174.93709 109.63467 169.78711 104.55469 C 167.52961 102.34219 165.57601 100.23016 163.26367 100.46875 z " />
  <path
     id="path46"
     style="display:inline;fill:#e8f8f9"
     d="M 59.988281 219.97461 C 58.552556 220.00961 57.175753 220.28945 55.857422 220.81445 C 53.164094 221.88112 51.693931 222.45206 51.447266 222.52539 C 49.860602 222.96539 48.277262 223.4243 46.697266 223.9043 C 45.657268 224.2243 45.235623 224.86445 44.515625 225.56445 C 44.262292 225.81112 43.963854 225.9212 43.617188 225.89453 C 42.103858 225.77453 40.559659 225.83733 38.986328 226.08398 C 38.899658 226.09728 38.816328 226.12406 38.736328 226.16406 C 38.642998 226.20406 38.580208 226.275 38.546875 226.375 C 38.486875 226.54167 38.376797 226.65794 38.216797 226.72461 L 34.345703 228.39453 C 34.039037 228.52786 33.839427 228.75112 33.746094 229.06445 C 33.726094 229.15115 33.723028 229.24065 33.736328 229.33398 C 33.789658 229.60732 33.700128 229.81508 33.466797 229.95508 C 31.953466 230.90174 30.944165 232.20525 30.4375 233.86523 A 0.72 0.72 0 0 0 30.947266 234.77539 L 31.357422 234.875 C 31.744087 234.975 32.023932 234.8444 32.197266 234.48438 C 32.357264 234.15772 32.616564 233.93755 32.976562 233.82422 C 33.389895 233.69755 33.776719 233.51539 34.136719 233.27539 C 35.950048 232.06873 37.792685 230.9257 39.666016 229.8457 A 0.86 0.86 0 0 1 40.957031 230.47461 C 41.017031 230.88794 40.80617 231.18214 40.326172 231.35547 C 40.172839 231.40877 40.068958 231.51073 40.015625 231.66406 C 39.982295 231.75076 39.976094 231.84531 39.996094 231.94531 C 40.049424 232.17865 39.962994 232.34221 39.736328 232.43555 C 38.216332 233.08221 36.986873 234.13066 36.046875 235.58398 L 60.607422 219.97461 C 60.399922 219.96961 60.193385 219.96961 59.988281 219.97461 z " />
</svg>
